<svg width="694" height="343" viewBox="0 0 694 343" fill="none" xmlns="http://www.w3.org/2000/svg">
<g clip-path="url(#clip0_11_14)">
<rect width="694" height="343" rx="50" fill="black"/>
<path d="M145.845 239V124.855H110.51V103.95H204.49V124.855H169.155V239H145.845ZM242.343 240.85C231.983 240.85 223.781 237.952 217.738 232.155C211.818 226.235 208.858 218.527 208.858 209.03C208.858 199.163 212.249 191.332 219.033 185.535C225.816 179.615 235.128 176.655 246.968 176.655H271.758V169.44C271.758 159.203 265.776 154.085 253.813 154.085C248.386 154.085 244.069 155.133 240.863 157.23C237.656 159.327 235.868 162.287 235.498 166.11H213.298C213.791 156.983 217.614 149.583 224.768 143.91C232.044 138.237 241.788 135.4 253.998 135.4C266.948 135.4 276.999 138.422 284.153 144.465C291.306 150.508 294.883 159.018 294.883 169.995V239H272.313V219.945C271.449 226.482 268.366 231.6 263.063 235.3C257.759 239 250.853 240.85 242.343 240.85ZM249.743 221.98C256.526 221.98 261.891 220.315 265.838 216.985C269.784 213.655 271.758 209.215 271.758 203.665V191.64H248.078C243.021 191.64 239.013 193.058 236.053 195.895C233.093 198.732 231.613 202.37 231.613 206.81C231.613 211.373 233.154 215.073 236.238 217.91C239.444 220.623 243.946 221.98 249.743 221.98ZM366.22 239C356.107 239 347.967 235.978 341.8 229.935C335.757 223.892 332.735 215.937 332.735 206.07V124.855H299.25V103.95H355.86V205.515C355.86 209.338 356.909 212.422 359.005 214.765C361.225 216.985 364.185 218.095 367.885 218.095H397.67V239H366.22ZM462.348 239C452.235 239 444.095 235.978 437.928 229.935C431.885 223.892 428.863 215.937 428.863 206.07V124.855H395.378V103.95H451.988V205.515C451.988 209.338 453.037 212.422 455.133 214.765C457.353 216.985 460.313 218.095 464.013 218.095H493.798V239H462.348ZM504.456 239V137.25H527.026V157.045C528.259 150.385 531.281 145.143 536.091 141.32C541.024 137.373 547.376 135.4 555.146 135.4C565.506 135.4 573.584 138.73 579.381 145.39C585.178 152.05 588.076 161.362 588.076 173.325V182.945H564.951V174.435C564.951 168.268 563.348 163.582 560.141 160.375C556.934 157.045 552.371 155.38 546.451 155.38C540.284 155.38 535.598 157.23 532.391 160.93C529.184 164.63 527.581 169.872 527.581 176.655V239H504.456Z" fill="white"/>
<path d="M145.845 239V124.855H110.51V103.95H204.49V124.855H169.155V239H145.845ZM242.343 240.85C231.983 240.85 223.781 237.952 217.738 232.155C211.818 226.235 208.858 218.527 208.858 209.03C208.858 199.163 212.249 191.332 219.033 185.535C225.816 179.615 235.128 176.655 246.968 176.655H271.758V169.44C271.758 159.203 265.776 154.085 253.813 154.085C248.386 154.085 244.069 155.133 240.863 157.23C237.656 159.327 235.868 162.287 235.498 166.11H213.298C213.791 156.983 217.614 149.583 224.768 143.91C232.044 138.237 241.788 135.4 253.998 135.4C266.948 135.4 276.999 138.422 284.153 144.465C291.306 150.508 294.883 159.018 294.883 169.995V239H272.313V219.945C271.449 226.482 268.366 231.6 263.063 235.3C257.759 239 250.853 240.85 242.343 240.85ZM249.743 221.98C256.526 221.98 261.891 220.315 265.838 216.985C269.784 213.655 271.758 209.215 271.758 203.665V191.64H248.078C243.021 191.64 239.013 193.058 236.053 195.895C233.093 198.732 231.613 202.37 231.613 206.81C231.613 211.373 233.154 215.073 236.238 217.91C239.444 220.623 243.946 221.98 249.743 221.98ZM366.22 239C356.107 239 347.967 235.978 341.8 229.935C335.757 223.892 332.735 215.937 332.735 206.07V124.855H299.25V103.95H355.86V205.515C355.86 209.338 356.909 212.422 359.005 214.765C361.225 216.985 364.185 218.095 367.885 218.095H397.67V239H366.22ZM462.348 239C452.235 239 444.095 235.978 437.928 229.935C431.885 223.892 428.863 215.937 428.863 206.07V124.855H395.378V103.95H451.988V205.515C451.988 209.338 453.037 212.422 455.133 214.765C457.353 216.985 460.313 218.095 464.013 218.095H493.798V239H462.348ZM504.456 239V137.25H527.026V157.045C528.259 150.385 531.281 145.143 536.091 141.32C541.024 137.373 547.376 135.4 555.146 135.4C565.506 135.4 573.584 138.73 579.381 145.39C585.178 152.05 588.076 161.362 588.076 173.325V182.945H564.951V174.435C564.951 168.268 563.348 163.582 560.141 160.375C556.934 157.045 552.371 155.38 546.451 155.38C540.284 155.38 535.598 157.23 532.391 160.93C529.184 164.63 527.581 169.872 527.581 176.655V239H504.456Z" fill="url(#paint0_linear_11_14)"/>
</g>
<defs>
<linearGradient id="paint0_linear_11_14" x1="102" y1="172" x2="598" y2="172" gradientUnits="userSpaceOnUse">
<stop stop-color="#E8A4C4"/>
<stop offset="1" stop-color="#A5AEDC"/>
</linearGradient>
<clipPath id="clip0_11_14">
<rect width="694" height="343" fill="white"/>
</clipPath>
</defs>
</svg>
